<svg xmlns="http://www.w3.org/2000/svg" width="577" height="180" viewBox="0 0 577 180">
  <defs>
    <style>
      .cls-1 {
        fill-rule: evenodd;
      }
    </style>
  </defs>
  <path id="눅다_제주" data-name="눅다, 제주" class="cls-1" d="M45.517,51.679a2.182,2.182,0,0,1,1.529,1.92v11.16q0,10.44,13.642,10.2l28.93-.24q2.938,0,6.115-.12a34.264,34.264,0,0,0,5.527-.6q2.939-.478,2.94-3,0-1.8-2.94-2.76a28.731,28.731,0,0,0-8.467-.96,7.234,7.234,0,0,0-2,.24q-0.824.242-1.764,0.6t-2.234.72a17.088,17.088,0,0,1-3.528.48q-5.882.481-11.642,0.6t-10.937.12q-6,0-6-5.28V54.2a12.391,12.391,0,0,1,.235-2.7,9.9,9.9,0,0,0,.235-2.22q0-.72-1.705-1.44a25.193,25.193,0,0,0-4-1.26q-2.293-.54-4.7-0.9a27.808,27.808,0,0,0-3.94-.36,2.233,2.233,0,0,0-1.646.72,2.326,2.326,0,0,0-.706,1.68,1.355,1.355,0,0,0,.412,1.08,3.487,3.487,0,0,0,1,.6Zm61.8,35.28q-1.236.36-2.823,0.78t-3.822.78a35.593,35.593,0,0,1-5.527.36l-59.506,1.08a43.757,43.757,0,0,1-8.585-.478,31.831,31.831,0,0,0-4.234-.6,2.332,2.332,0,0,0-1.646.662,2.3,2.3,0,0,0-.706,1.763,2.477,2.477,0,0,0,1.47,1.894,23.308,23.308,0,0,0,3.587,1.77,25.412,25.412,0,0,0,4.586,1.344,23.165,23.165,0,0,0,4.469.487,9.039,9.039,0,0,0,1.94-.193q0.882-.194,1.882-0.517a20.938,20.938,0,0,1,2.293-.581,25.737,25.737,0,0,1,3.293-.388q6.35-.478,12.818-0.66t13.054-.3v9.12q0,4.68.823,6.36a2.438,2.438,0,0,0,2.117,1.68q1.293,0,3-2.52t1.705-8.52v-6.24q6.466-.118,12.583-0.12H101.73q7.056,0,11.583.3t7.233,0.3a5.872,5.872,0,0,0,3.351-.84,2.966,2.966,0,0,0,1.235-2.64q0-2.278-3.646-3.36T109.844,86.6A8.976,8.976,0,0,0,107.316,86.959Zm-17.64,24.72a7.991,7.991,0,0,1-3.116.6q-3.765.121-8,.3t-8.467.3q-4.234.121-8.173,0.24t-7.115.12a35.7,35.7,0,0,1-6.644-.48,20.569,20.569,0,0,0-3.352-.48,2.233,2.233,0,0,0-1.646.72,2.327,2.327,0,0,0-.706,1.68,2.382,2.382,0,0,0,1.235,1.62,16.191,16.191,0,0,0,3,1.68,22.924,22.924,0,0,0,3.646,1.26,13.178,13.178,0,0,0,3.175.48,6.234,6.234,0,0,0,2.587-.48,11.857,11.857,0,0,1,3.41-.72q1.88-.239,5.468-0.48t7.938-.42q4.349-.18,8.879-0.3t8.291-.12v27.6a11.5,11.5,0,0,0,.529,4.26,1.856,1.856,0,0,0,1.823,1.14q1.293,0,3-3.42t1.94-9.78l0.941-19.32a8.071,8.071,0,0,1,.47-2.22,5.049,5.049,0,0,0,.353-1.86q0-1.2-2.117-1.8a19.261,19.261,0,0,0-5.174-.6A4.511,4.511,0,0,0,89.676,111.679ZM232.736,84.2a6.426,6.426,0,0,0-2.058.3,14.06,14.06,0,0,0-1.823.78q-1.294.6-3.351,1.32a24.375,24.375,0,0,1-5.116,1.08V47.6a12.753,12.753,0,0,1,.176-2.04,14.893,14.893,0,0,0,.177-2.4q0-.959-2-2.16a34.286,34.286,0,0,0-4.646-2.28,44.373,44.373,0,0,0-5.35-1.8,17.68,17.68,0,0,0-4.234-.72,2.232,2.232,0,0,0-1.646.72,2.325,2.325,0,0,0-.706,1.68,2.275,2.275,0,0,0,1.411,1.68l6.7,3.84a5.311,5.311,0,0,1,2,1.62,3.323,3.323,0,0,1,.47,1.74V146.6q0,2.758.706,3.48a2.367,2.367,0,0,0,1.764.72,2.5,2.5,0,0,0,1.646-1.2,12.468,12.468,0,0,0,1.7-3.18,28.514,28.514,0,0,0,1.294-4.62,28.024,28.024,0,0,0,.529-5.52V92.239l11.29-.72q2.822-.118,4.762-0.12h3.352q4.7,0,4.7-3.6,0-1.8-2.705-2.64a32.954,32.954,0,0,0-9.055-.96h0Zm-41.513,15.18q-5.411,1.861-10.525,3.12t-9.584,1.92a54,54,0,0,1-7.762.66,5.01,5.01,0,0,1-3.175-.78,3.5,3.5,0,0,1-.941-2.82l0.118-30.72,29.4-.12a5.375,5.375,0,0,0,3.116-.78,2.79,2.79,0,0,0,1.117-2.46,2.232,2.232,0,0,0-.882-1.8,7.275,7.275,0,0,0-2.352-1.2,18.548,18.548,0,0,0-3.351-.72,31.784,31.784,0,0,0-4-.24,5.205,5.205,0,0,0-2.587.66,9.386,9.386,0,0,1-3.528.9,31.617,31.617,0,0,1-3.41.36q-2,.121-4.293.24t-4.7.18q-2.412.062-4.41,0.06-3.175-.6-7.056-1.08a53.151,53.151,0,0,0-6.115-.48,2.232,2.232,0,0,0-1.646.72,2.324,2.324,0,0,0-.706,1.68,1.742,1.742,0,0,0,1.411,1.68l4.234,1.44a2.442,2.442,0,0,1,1.881,2.52l0.118,29.4c0,0.561.018,1.181,0.059,1.86a10.719,10.719,0,0,0,.294,1.98,8.012,8.012,0,0,0,3.234,5.34,9.1,9.1,0,0,0,5.233,1.74,47.224,47.224,0,0,0,9.29-1.08,105.47,105.47,0,0,0,10.937-2.88q5.644-1.8,11.29-4.2t10.466-5.04a4.44,4.44,0,0,0,2.293-2.04,2.525,2.525,0,0,0,.059-1.92,1.258,1.258,0,0,0-1.117-.72,3.076,3.076,0,0,0-1.823.36A110.39,110.39,0,0,1,191.223,99.379Zm71.736,32.46a6.9,6.9,0,0,1,1.647,1.5,3.2,3.2,0,0,1,.588,1.98,14.243,14.243,0,0,1-1.412,6.12,23.529,23.529,0,0,1-3.763,5.64,2.344,2.344,0,0,0-.647,1.68,1.675,1.675,0,0,0,.588,1.26,2.215,2.215,0,0,0,1.412.42,3.026,3.026,0,0,0,1.822-.72,27.61,27.61,0,0,0,4.822-5.28,48.135,48.135,0,0,0,3.646-6.24,28.3,28.3,0,0,0,1.646-4.44,16.425,16.425,0,0,0,.588-4.32,6.2,6.2,0,0,0-2.058-4.92,7.5,7.5,0,0,0-5.116-1.8,5.293,5.293,0,0,0-4.116,1.68,5.849,5.849,0,0,0-1.528,4.08,3.962,3.962,0,0,0,1.881,3.36h0ZM406.31,36.859a2.011,2.011,0,0,0-.7,1.5,2.3,2.3,0,0,0,1.411,1.8l6.233,3.6a6.409,6.409,0,0,1,1.823,1.62,3.04,3.04,0,0,1,.529,1.74V146q0,3.119.7,3.96a2.1,2.1,0,0,0,1.647.84,2.524,2.524,0,0,0,1.764-1.14,12.307,12.307,0,0,0,1.764-3.18,23.561,23.561,0,0,0,1.293-4.8,35.078,35.078,0,0,0,.471-5.88V47a12.369,12.369,0,0,1,.176-2.1,12.251,12.251,0,0,0,.177-2.1q0-1.08-1.882-2.22a26.5,26.5,0,0,0-4.469-2.1,51.867,51.867,0,0,0-5.174-1.62,17.758,17.758,0,0,0-4.116-.66A2.339,2.339,0,0,0,406.31,36.859Zm-18.228,9.6a2.192,2.192,0,0,0-.588,1.5,1.885,1.885,0,0,0,1.412,1.68l5.409,2.64a3.083,3.083,0,0,1,1.882,2.88v25.92l-6.115.36a24.577,24.577,0,0,1-4.94,0,19.172,19.172,0,0,0-2.587-.24,2.463,2.463,0,0,0-1.646.6,1.952,1.952,0,0,0-.706,1.56,1.929,1.929,0,0,0,.823,1.32,11.673,11.673,0,0,0,2,1.38A17.072,17.072,0,0,0,385.5,87.2a6.574,6.574,0,0,0,2.235.48,4.033,4.033,0,0,0,2.234-.54,9.51,9.51,0,0,1,2.47-1.02,26.569,26.569,0,0,1,3.763-.72v46.8q0,3.118.7,3.96a2.1,2.1,0,0,0,1.647.84q1.293,0,2.94-3.78t1.646-10.62V55.279a13.812,13.812,0,0,1,.177-2.34,13.1,13.1,0,0,0,.176-2.22q0-.838-1.646-1.74a22,22,0,0,0-3.94-1.62,38.684,38.684,0,0,0-4.586-1.14,21.628,21.628,0,0,0-3.7-.42A1.955,1.955,0,0,0,388.082,46.459ZM370.8,86.239a168.2,168.2,0,0,0,9.526-16.2,22.262,22.262,0,0,1,1.7-3,3.885,3.885,0,0,0,.764-2.28q0-1.319-2.234-1.92a20.08,20.08,0,0,0-5.174-.6,4.664,4.664,0,0,0-2.352.54,6.977,6.977,0,0,1-2.94.66l-16.817.48a31.828,31.828,0,0,1-3.94,0q-1.587-.118-2.528-0.24t-1.529-.24a5.463,5.463,0,0,0-1.058-.12,2.339,2.339,0,0,0-1.647.66,2.135,2.135,0,0,0-.705,1.62,2.4,2.4,0,0,0,1.058,1.62,14.978,14.978,0,0,0,2.47,1.68,18.361,18.361,0,0,0,3,1.32,8.56,8.56,0,0,0,2.646.54,5.007,5.007,0,0,0,2.411-.6,9.008,9.008,0,0,1,3.117-.84q3.056-.478,7.467-0.72t8.173-.36a115.163,115.163,0,0,1-6.056,11.82,111.584,111.584,0,0,1-7.468,11.1,103.9,103.9,0,0,1-9.29,10.56,127.38,127.38,0,0,1-11.642,10.2,2.826,2.826,0,0,0-1.235,1.86,1.86,1.86,0,0,0,.529,1.5,3.051,3.051,0,0,0,2.646.78,8.152,8.152,0,0,0,3.822-1.74,116.561,116.561,0,0,0,13.406-11.34A109.968,109.968,0,0,0,367.973,90.2l13.053,19.44a3.256,3.256,0,0,0,2.823,1.56,2.929,2.929,0,0,0,1.94-.96,3.636,3.636,0,0,0,.765-2.52,14.064,14.064,0,0,0-1-4.56,34.036,34.036,0,0,0-2.881-5.88,5.825,5.825,0,0,0-1.941-1.98q-1.235-.779-3-2.1a38.536,38.536,0,0,1-6.939-6.96h0Zm115.131-3.6a167.683,167.683,0,0,0,15.052-7.8l31.047,10.2q1.293,0.36,2.058.54a7.441,7.441,0,0,0,1.705.18,3.446,3.446,0,0,0,2.47-1.02,2.935,2.935,0,0,0,.94-2.46q-0.117-1.679-3.116-3.84a31.01,31.01,0,0,0-9.349-3.96,5.521,5.521,0,0,0-1.529-.24h-1.588q-0.882,0-2.058.06a16.086,16.086,0,0,1-2.94-.18q-3.293-.36-6.644-0.96t-6.292-1.32q4.587-2.88,8.526-5.88t7-5.76q3.291-3,4.88-4.38a3.768,3.768,0,0,0,1.588-2.7q0-1.44-2.47-2.22a18.327,18.327,0,0,0-5.527-.78,5.46,5.46,0,0,0-2.411.54,7.872,7.872,0,0,1-2.881.66q-3.175.242-7,.36t-7.7.24q-3.88.121-7.644,0.18t-6.821.06a39.185,39.185,0,0,1-6.7-.42,20.21,20.21,0,0,0-3.058-.42,2.232,2.232,0,0,0-1.646.72,2.324,2.324,0,0,0-.706,1.68,2.223,2.223,0,0,0,1.176,1.56,17.34,17.34,0,0,0,2.881,1.62,24.425,24.425,0,0,0,3.646,1.32,12.793,12.793,0,0,0,3.352.54,6.667,6.667,0,0,0,2.646-.48,12.064,12.064,0,0,1,3.234-.72q1.41-.118,4.174-0.36t6.233-.42q3.468-.18,7.233-0.3t7.173-.24A82.761,82.761,0,0,1,505.8,64.1a113.249,113.249,0,0,1-11.7,7.74,152.516,152.516,0,0,1-13.7,7.02,132.027,132.027,0,0,1-14.935,5.7,2.733,2.733,0,0,0-1.764,1.2,1.616,1.616,0,0,0,0,1.68,2.588,2.588,0,0,0,2.235,1.38,11.462,11.462,0,0,0,4-.42A100.928,100.928,0,0,0,485.926,82.639Zm52.978,14.1q-1.235.3-2.822,0.72a38.233,38.233,0,0,1-3.94.78,52.054,52.054,0,0,1-6,.48l-58.683,1.2a49.66,49.66,0,0,1-9.937-.36,30.075,30.075,0,0,0-4.292-.6,2.234,2.234,0,0,0-1.647.72,2.328,2.328,0,0,0-.705,1.68,2.569,2.569,0,0,0,1.47,1.92,18.176,18.176,0,0,0,3.528,1.74,28.778,28.778,0,0,0,4.351,1.26,19.593,19.593,0,0,0,3.94.48,9.063,9.063,0,0,0,3.234-.6,17.85,17.85,0,0,1,4.645-.84q6.35-.36,13.641-0.6t14.583-.48V145.4q0,3.6.882,4.5a2.792,2.792,0,0,0,2.058.9q1.527,0,3.234-4.08a28.889,28.889,0,0,0,1.7-10.92V104q5.055-.118,9.349-0.18t7.585-.06q6.232,0,10.526.12t7.173,0.24q2.88,0.121,4.822.24t3.351,0.12a5.932,5.932,0,0,0,3.293-.84,2.92,2.92,0,0,0,1.294-2.64q0-2.039-3.293-3.3t-10.7-1.26A11.261,11.261,0,0,0,538.9,96.739Z"/>
</svg>
